<svg xmlns="http://www.w3.org/2000/svg" viewBox="0 0 400 400" width="400" height="400" role="img"><title>Headphones Detail placeholder</title><defs><linearGradient id="gb" x1="0" y1="0" x2="0.35" y2="1"><stop offset="0" stop-color="#4A5263"/><stop offset="1" stop-color="#1A1D25"/></linearGradient><linearGradient id="gm" x1="0" y1="0" x2="0.3" y2="1"><stop offset="0" stop-color="#6B7385"/><stop offset="1" stop-color="#2F3542"/></linearGradient><linearGradient id="gd" x1="0" y1="0" x2="0" y2="1"><stop offset="0" stop-color="#20242E"/><stop offset="1" stop-color="#0B0D12"/></linearGradient><linearGradient id="gs" x1="0" y1="0" x2="1" y2="1"><stop offset="0" stop-color="#232937"/><stop offset="1" stop-color="#0E1117"/></linearGradient><linearGradient id="gl" x1="0" y1="0" x2="0" y2="1"><stop offset="0" stop-color="#fff" stop-opacity=".55"/><stop offset=".5" stop-color="#fff" stop-opacity="0"/></linearGradient><filter id="sh" x="-30%" y="-30%" width="160%" height="170%"><feDropShadow dx="0" dy="18" stdDeviation="16" flood-color="#0B0D12" flood-opacity=".28"/></filter></defs><ellipse cx="200" cy="364" rx="118" ry="10" fill="#0B0D12" opacity=".14"/><g filter="url(#sh)"><circle cx="200" cy="200" r="140" fill="url(#gb)"/><circle cx="200" cy="200" r="104" fill="url(#gm)"/><circle cx="200" cy="200" r="70" fill="url(#gd)"/><circle cx="200" cy="200" r="30" fill="#C6F432" opacity=".7"/><circle cx="182" cy="182" r="9" fill="#fff" opacity=".5"/></g><g opacity=".5" style="mix-blend-mode:screen"><circle cx="200" cy="200" r="140" fill="url(#gl)"/><circle cx="200" cy="200" r="104" fill="none"/><circle cx="200" cy="200" r="70" fill="none"/><circle cx="200" cy="200" r="30" fill="#C6F432" opacity=".7"/><circle cx="182" cy="182" r="9" fill="#fff" opacity=".5"/></g></svg>
