<svg xmlns="http://www.w3.org/2000/svg" viewBox="0 0 400 400" width="400" height="400" role="img"><title>Speaker placeholder</title><rect x="128" y="70" width="144" height="260" rx="72" fill="#2A2F3A"/><circle cx="150" cy="130" r="4" fill="#4A5160"/><circle cx="150" cy="150" r="4" fill="#4A5160"/><circle cx="150" cy="170" r="4" fill="#4A5160"/><circle cx="150" cy="190" r="4" fill="#4A5160"/><circle cx="150" cy="210" r="4" fill="#4A5160"/><circle cx="150" cy="230" r="4" fill="#4A5160"/><circle cx="150" cy="250" r="4" fill="#4A5160"/><circle cx="150" cy="270" r="4" fill="#4A5160"/><circle cx="150" cy="290" r="4" fill="#4A5160"/><circle cx="170" cy="130" r="4" fill="#4A5160"/><circle cx="170" cy="150" r="4" fill="#4A5160"/><circle cx="170" cy="170" r="4" fill="#4A5160"/><circle cx="170" cy="190" r="4" fill="#4A5160"/><circle cx="170" cy="210" r="4" fill="#4A5160"/><circle cx="170" cy="230" r="4" fill="#4A5160"/><circle cx="170" cy="250" r="4" fill="#4A5160"/><circle cx="170" cy="270" r="4" fill="#4A5160"/><circle cx="170" cy="290" r="4" fill="#4A5160"/><circle cx="190" cy="130" r="4" fill="#4A5160"/><circle cx="190" cy="150" r="4" fill="#4A5160"/><circle cx="190" cy="170" r="4" fill="#4A5160"/><circle cx="190" cy="190" r="4" fill="#4A5160"/><circle cx="190" cy="210" r="4" fill="#4A5160"/><circle cx="190" cy="230" r="4" fill="#4A5160"/><circle cx="190" cy="250" r="4" fill="#4A5160"/><circle cx="190" cy="270" r="4" fill="#4A5160"/><circle cx="190" cy="290" r="4" fill="#4A5160"/><circle cx="210" cy="130" r="4" fill="#4A5160"/><circle cx="210" cy="150" r="4" fill="#4A5160"/><circle cx="210" cy="170" r="4" fill="#4A5160"/><circle cx="210" cy="190" r="4" fill="#4A5160"/><circle cx="210" cy="210" r="4" fill="#4A5160"/><circle cx="210" cy="230" r="4" fill="#4A5160"/><circle cx="210" cy="250" r="4" fill="#4A5160"/><circle cx="210" cy="270" r="4" fill="#4A5160"/><circle cx="210" cy="290" r="4" fill="#4A5160"/><circle cx="230" cy="130" r="4" fill="#4A5160"/><circle cx="230" cy="150" r="4" fill="#4A5160"/><circle cx="230" cy="170" r="4" fill="#4A5160"/><circle cx="230" cy="190" r="4" fill="#4A5160"/><circle cx="230" cy="210" r="4" fill="#4A5160"/><circle cx="230" cy="230" r="4" fill="#4A5160"/><circle cx="230" cy="250" r="4" fill="#4A5160"/><circle cx="230" cy="270" r="4" fill="#4A5160"/><circle cx="230" cy="290" r="4" fill="#4A5160"/><circle cx="250" cy="130" r="4" fill="#4A5160"/><circle cx="250" cy="150" r="4" fill="#4A5160"/><circle cx="250" cy="170" r="4" fill="#4A5160"/><circle cx="250" cy="190" r="4" fill="#4A5160"/><circle cx="250" cy="210" r="4" fill="#4A5160"/><circle cx="250" cy="230" r="4" fill="#4A5160"/><circle cx="250" cy="250" r="4" fill="#4A5160"/><circle cx="250" cy="270" r="4" fill="#4A5160"/><circle cx="250" cy="290" r="4" fill="#4A5160"/><rect x="178" y="308" width="44" height="5" rx="2.5" fill="#2B4EFF"/></svg>
