<svg xmlns="http://www.w3.org/2000/svg" viewBox="0 0 400 400" width="400" height="400" role="img"><title>Tablet placeholder</title><defs><linearGradient id="gb" x1="0" y1="0" x2="0.35" y2="1"><stop offset="0" stop-color="#4A5263"/><stop offset="1" stop-color="#1A1D25"/></linearGradient><linearGradient id="gm" x1="0" y1="0" x2="0.3" y2="1"><stop offset="0" stop-color="#6B7385"/><stop offset="1" stop-color="#2F3542"/></linearGradient><linearGradient id="gd" x1="0" y1="0" x2="0" y2="1"><stop offset="0" stop-color="#20242E"/><stop offset="1" stop-color="#0B0D12"/></linearGradient><linearGradient id="gs" x1="0" y1="0" x2="1" y2="1"><stop offset="0" stop-color="#232937"/><stop offset="1" stop-color="#0E1117"/></linearGradient><linearGradient id="gl" x1="0" y1="0" x2="0" y2="1"><stop offset="0" stop-color="#fff" stop-opacity=".55"/><stop offset=".5" stop-color="#fff" stop-opacity="0"/></linearGradient><filter id="sh" x="-30%" y="-30%" width="160%" height="170%"><feDropShadow dx="0" dy="18" stdDeviation="16" flood-color="#0B0D12" flood-opacity=".28"/></filter></defs><ellipse cx="200" cy="364" rx="118" ry="10" fill="#0B0D12" opacity=".14"/><g filter="url(#sh)"><rect x="96" y="56" width="208" height="288" rx="24" fill="url(#gb)"/><rect x="108" y="68" width="184" height="264" rx="14" fill="url(#gs)"/><rect x="126" y="88" width="148" height="100" rx="12" fill="#C6F432" opacity=".85"/><rect x="126" y="204" width="110" height="8" rx="4" fill="#3A4254"/><rect x="126" y="220" width="80" height="8" rx="4" fill="#3A4254"/><rect x="126" y="248" width="68" height="60" rx="10" fill="#3A4254"/><rect x="206" y="248" width="68" height="60" rx="10" fill="#3A4254"/></g><g opacity=".5" style="mix-blend-mode:screen"><rect x="96" y="56" width="208" height="288" rx="24" fill="url(#gl)"/><rect x="108" y="68" width="184" height="264" rx="14" fill="none"/><rect x="126" y="88" width="148" height="100" rx="12" fill="#C6F432" opacity=".85"/><rect x="126" y="204" width="110" height="8" rx="4" fill="#3A4254"/><rect x="126" y="220" width="80" height="8" rx="4" fill="#3A4254"/><rect x="126" y="248" width="68" height="60" rx="10" fill="#3A4254"/><rect x="206" y="248" width="68" height="60" rx="10" fill="#3A4254"/></g></svg>
